# xmcd
#
# Track frame offsets: 
#        150
#        15916
#        28644
#        44853
#        55543
#        67140
#        81892
#        92993
#        107085
#        126468
#
# Disc length: 1923 seconds
#
# Revision: 0
# Processed by: cddbd v1.5.2PL0 Copyright (c) Steve Scherf et al.
# Submitted via: ExactAudioCopyFreeDBPlugin 1.0
#
DISCID=8707810a
DTITLE=Frog and Henry - Frog and Henry 2018 Apr-May
DYEAR=2018
DGENRE=Blues
TTITLE0=Bouncing Around
TTITLE1=The Girls Go Crazy
TTITLE2=CAble Street
TTITLE3=Limehouse Blues
TTITLE4=St. Petersburg Gelatery Blues
TTITLE5=Venezuela
TTITLE6=A Good Man Is Hard To Find
TTITLE7=My Gal Sal
TTITLE8=Little White Lies
TTITLE9=Maple Leaf Rag
EXTD=
EXTT0=
EXTT1=
EXTT2=
EXTT3=
EXTT4=
EXTT5=
EXTT6=
EXTT7=
EXTT8=
EXTT9=
PLAYORDER=
